<svg width="108" height="108" viewBox="0 0 108 108" fill="none" xmlns="http://www.w3.org/2000/svg">
<rect x="1.5" y="1.5" width="105" height="105" stroke="white" stroke-width="3"/>
<line x1="108" y1="38.5" x2="54" y2="38.5" stroke="white" stroke-width="3"/>
<line y1="71.5" x2="46" y2="71.5" stroke="white" stroke-width="3"/>
<path d="M15.3438 23.5625V52H11.5742V23.5625H15.3438ZM31.3789 47.6836L39.7578 23.5625H43.8398L33.3125 52H30.4023L31.3789 47.6836ZM23.5469 23.5625L31.8477 47.6836L32.8828 52H29.9727L19.4648 23.5625H23.5469Z" fill="white"/>
<path d="M63.8281 59.082L54.4141 85H50.5664L61.4062 56.5625H63.8867L63.8281 59.082ZM71.7188 85L62.2852 59.082L62.2266 56.5625H64.707L75.5859 85H71.7188ZM71.2305 74.4727V77.5586H55.2539V74.4727H71.2305ZM79.3945 56.5625H88.8086C90.944 56.5625 92.7474 56.888 94.2188 57.5391C95.7031 58.1901 96.8294 59.1536 97.5977 60.4297C98.3789 61.6927 98.7695 63.2487 98.7695 65.0977C98.7695 66.3997 98.5026 67.5911 97.9688 68.6719C97.4479 69.7396 96.6927 70.651 95.7031 71.4062C94.7266 72.1484 93.5547 72.7018 92.1875 73.0664L91.1328 73.4766H82.2852L82.2461 70.4102H88.9258C90.2799 70.4102 91.4062 70.1758 92.3047 69.707C93.2031 69.2253 93.8802 68.5807 94.3359 67.7734C94.7917 66.9661 95.0195 66.0742 95.0195 65.0977C95.0195 64.0039 94.8047 63.0469 94.375 62.2266C93.9453 61.4062 93.2682 60.7747 92.3438 60.332C91.4323 59.8763 90.2539 59.6484 88.8086 59.6484H83.1641V85H79.3945V56.5625ZM96.0156 85L89.1016 72.1094L93.0273 72.0898L100.039 84.7656V85H96.0156Z" fill="white"/>
</svg>
