<svg width="50" height="50" viewBox="0 0 50 50" fill="none" xmlns="http://www.w3.org/2000/svg">
<rect x="0.5" y="0.5" width="49" height="49" stroke="white"/>
<line x1="50" y1="17.6296" x2="25" y2="17.6296" stroke="white"/>
<line y1="33.2963" x2="21.2963" y2="33.2963" stroke="white"/>
<path d="M6.6412 10.5694V21.9444H5.13339V10.5694H6.6412ZM13.0553 20.2179L16.4068 10.5694H18.0396L13.8287 21.9444H12.6646L13.0553 20.2179ZM9.92245 10.5694L13.2428 20.2179L13.6568 21.9444H12.4928L8.28964 10.5694H9.92245Z" fill="white"/>
<path d="M28.6794 26.855L24.9138 37.2222H23.3747L27.7106 25.8472H28.7028L28.6794 26.855ZM31.8356 37.2222L28.0622 26.855L28.0388 25.8472H29.031L33.3825 37.2222H31.8356ZM31.6403 33.0113V34.2457H25.2497V33.0113H31.6403ZM34.906 25.8472H38.6716C39.5258 25.8472 40.2471 25.9774 40.8356 26.2378C41.4294 26.4983 41.8799 26.8837 42.1872 27.3941C42.4997 27.8993 42.656 28.5217 42.656 29.2613C42.656 29.7821 42.5492 30.2587 42.3356 30.691C42.1273 31.1181 41.8252 31.4826 41.4294 31.7847C41.0388 32.0816 40.57 32.303 40.0231 32.4488L39.6013 32.6128H36.0622L36.0466 31.3863H38.7185C39.2601 31.3863 39.7106 31.2925 40.07 31.105C40.4294 30.9123 40.7002 30.6545 40.8825 30.3316C41.0648 30.0087 41.156 29.6519 41.156 29.2613C41.156 28.8238 41.07 28.441 40.8981 28.1128C40.7263 27.7847 40.4554 27.5321 40.0856 27.355C39.7211 27.1727 39.2497 27.0816 38.6716 27.0816H36.4138V37.2222H34.906V25.8472ZM41.5544 37.2222L38.7888 32.066L40.3591 32.0582L43.1638 37.1285V37.2222H41.5544Z" fill="white"/>
</svg>
