<svg width="36" height="36" viewBox="0 0 36 36" fill="none" xmlns="http://www.w3.org/2000/svg">
<rect x="0.5" y="0.5" width="35" height="35" stroke="white"/>
<line x1="36" y1="12.8333" x2="18" y2="12.8333" stroke="white"/>
<line y1="23.8333" x2="15.3333" y2="23.8333" stroke="white"/>
<path d="M7.22638 9.16643V17.6977H6.09552V9.16643H7.22638ZM12.0369 16.4028L14.5506 9.16643H15.7752L12.617 17.6977H11.744L12.0369 16.4028ZM9.68732 9.16643L12.1776 16.4028L12.4881 17.6977H11.6151L8.46271 9.16643H9.68732Z" fill="white"/>
<path d="M22.1484 21.2246L19.3242 29H18.1699L21.4219 20.4688H22.166L22.1484 21.2246ZM24.5156 29L21.6855 21.2246L21.668 20.4688H22.4121L25.6758 29H24.5156ZM24.3691 25.8418V26.7676H19.5762V25.8418H24.3691ZM26.8184 20.4688H29.6426C30.2832 20.4688 30.8242 20.5664 31.2656 20.7617C31.7109 20.957 32.0488 21.2461 32.2793 21.6289C32.5137 22.0078 32.6309 22.4746 32.6309 23.0293C32.6309 23.4199 32.5508 23.7773 32.3906 24.1016C32.2344 24.4219 32.0078 24.6953 31.7109 24.9219C31.418 25.1445 31.0664 25.3105 30.6562 25.4199L30.3398 25.543H27.6855L27.6738 24.623H29.6777C30.084 24.623 30.4219 24.5527 30.6914 24.4121C30.9609 24.2676 31.1641 24.0742 31.3008 23.832C31.4375 23.5898 31.5059 23.3223 31.5059 23.0293C31.5059 22.7012 31.4414 22.4141 31.3125 22.168C31.1836 21.9219 30.9805 21.7324 30.7031 21.5996C30.4297 21.4629 30.0762 21.3945 29.6426 21.3945H27.9492V29H26.8184V20.4688ZM31.8047 29L29.7305 25.1328L30.9082 25.127L33.0117 28.9297V29H31.8047Z" fill="white"/>
</svg>
